# xmcd
#
# Track frame offsets: 
#        150
#        21667
#        35240
#        62278
#        71015
#        91640
#        106490
#        119128
#        138028
#        152428
#        174417
#        196827
#        209239
#        227727
#        245239
#
# Disc length: 3497 seconds
#
# Revision: 1
# Processed by: cddbd v1.5.1PL0 Copyright (c) Steve Scherf et al.
# Submitted via: ExactAudioCopy v0.95a5
#
DISCID=d80da70f
DTITLE=Alexandru Andries - acasa
DYEAR=1996
DGENRE=Blues
TTITLE0=Te rog, te rog, te rog
TTITLE1=Fara prieteni
TTITLE2=Minciuni frumoase
TTITLE3=Cantec scurt
TTITLE4=Nisip, soare, valuri mici
TTITLE5=Nici o zi fara MTV
TTITLE6=Tu
TTITLE7=Elena din Troia
TTITLE8=Barbatii ei preferati
TTITLE9=acasa
TTITLE10=Toti suntem putin nebuni
TTITLE11=Jurnal de razboi
TTITLE12=Ironic
TTITLE13=50% zambet, 50% fum
TTITLE14=Aglomeratie
EXTD=YEAR: 1996 ID3G:   0
EXTT0=
EXTT1=
EXTT2=
EXTT3=
EXTT4=
EXTT5=
EXTT6=
EXTT7=
EXTT8=
EXTT9=
EXTT10=
EXTT11=
EXTT12=
EXTT13=
EXTT14=
PLAYORDER=
